<?xml version="1.0" encoding="UTF-8" standalone="no"?>
<svg
   fill="none"
   viewBox="0 0 64 64"
   version="1.1"
   id="svg1"
   width="64"
   height="64"
   xmlns="http://www.w3.org/2000/svg"
   xmlns:svg="http://www.w3.org/2000/svg">
  <defs
     id="defs1" />
  <path
     d="m 21.465,4 h 19.0575 l 3.5,6.7375 h -13.335 l 7.9625,19.46 c 0.875,2.1525 1.0675,3.5 1.0675,4.865 0,5.7575 -5.7575,9.975 -10.325,9.975 -3.71,0 -5.95,-2.1525 -5.95,-5.25 C 23.4775,34.835 29.48,30.67 34.905,30.67 l -2.1525,1.225 z m 2.52,56 h 16.03 C 51.7575,60 60,52.4225 60,41.94 60,38.86 58.88,35.15 57.4275,32.5775 L 49.1325,18.175 H 41.31 l 9.7475,16.94 a 13.79,13.79 0 0 1 1.925,6.685 c 0,6.685 -4.6025,11.41 -13.2125,11.41 H 24.23 C 15.62,53.2625 11,48.485 11,41.8 c 0,-2.38 0.8925,-4.8125 1.925,-6.685 l 9.8,-16.94 h -7.84 l -8.33,14.35 A 20.755,20.755 0 0 0 4,41.9575 C 4,52.4225 12.295,60 23.985,60 Z"
     fill="#f22c18"
     id="path1"
     style="stroke-width:1.75" />
</svg>
