<?xml version="1.0" encoding="UTF-8" standalone="no"?>
<!-- Created with Inkscape (http://www.inkscape.org/) -->

<svg
   width="63.999996"
   height="63.999996"
   viewBox="0 0 16.933332 16.933332"
   version="1.1"
   id="svg5"
   xml:space="preserve"
   xmlns="http://www.w3.org/2000/svg"
   xmlns:svg="http://www.w3.org/2000/svg"><defs
     id="defs2" /><g
     id="layer1"><g
       id="g953"
       transform="matrix(0.29276149,0,0,0.29204705,-63.715324,-15.962883)"><path
         style="fill:#9635e0;stroke-width:0.264583"
         d="m 241.59191,108.52268 c -3.26515,-0.69406 -6.34876,-1.97565 -8.95664,-3.72249 -13.66009,-9.150016 -15.31351,-28.354415 -3.40685,-39.570232 7.68382,-7.237982 18.67239,-8.980915 28.1917,-4.471574 5.50315,2.606868 9.47362,6.579612 12.08467,12.091593 1.8043,3.808897 2.3747,6.4535 2.35537,10.920268 -0.0134,3.105158 -0.12541,4.111982 -0.69244,6.226032 -3.03384,11.311083 -13.12271,19.085733 -24.68102,19.019583 -1.48473,-0.008 -3.63276,-0.22492 -4.89479,-0.49318 z"
         id="path920" /><path
         style="fill:#fbf8fd;stroke-width:0.264583"
         d="m 254.46521,95.324932 c -0.95837,-1.058986 -0.21748,-2.691145 1.2216,-2.691145 0.74097,0 1.51552,0.84142 1.51552,1.646372 0,0.667269 -0.94597,1.528628 -1.67879,1.528628 -0.34124,0 -0.81749,-0.217734 -1.05833,-0.483855 z"
         id="path942" /><path
         style="fill:#fbf8fd;stroke-width:0.264583"
         d="m 248.49774,88.893081 c 2.34814,-0.786185 3.67751,-2.651837 3.67751,-5.161052 0,-2.077607 -0.78482,-3.636438 -2.32145,-4.610941 -2.94511,-1.867729 -6.44866,-0.899977 -8.04089,2.221053 -0.78756,1.543734 -0.6026,3.96568 0.41498,5.434049 1.34641,1.942867 4.05661,2.857912 6.26985,2.116891 z"
         id="path940" /><path
         style="fill:#fbf8fd;stroke-width:0.264583"
         d="m 244.03946,98.707477 c -0.7639,-0.136652 -2.1205,-0.54573 -3.01466,-0.909061 -1.5833,-0.643353 -1.67008,-0.650319 -3.32386,-0.266782 -4.03951,0.936826 -4.68701,0.399656 -4.16948,-3.459033 0.29398,-2.191842 0.28651,-2.254705 -0.44552,-3.75223 -2.89746,-5.927331 -1.77163,-12.580061 2.92695,-17.295902 3.19594,-3.207687 6.46823,-4.58026 10.87069,-4.559742 8.50099,0.03962 15.08125,6.620859 15.08125,15.0835 0,4.124932 -0.80242,6.106418 -2.90247,7.167331 -1.84293,0.931018 -3.89399,0.727964 -5.22317,-0.517094 l -0.58502,-0.547992 -0.91465,0.803077 c -1.50616,1.322421 -3.65246,1.987325 -5.98511,1.854125 -2.46432,-0.140716 -4.07713,-0.826674 -5.65612,-2.405665 -1.45045,-1.450454 -2.14575,-2.765049 -2.51289,-4.751094 -0.6916,-3.741212 1.0713,-7.339626 4.50881,-9.203339 1.55749,-0.844424 1.84397,-0.908421 4.05708,-0.906321 2.06692,0.002 2.5804,0.09975 3.89,0.740856 0.87594,0.42881 2.00559,1.291205 2.69333,2.056135 1.82476,2.029575 2.35828,4.179597 2.02373,8.15534 -0.081,0.962504 0.007,1.249948 0.50541,1.653646 0.79833,0.646451 1.23496,0.6163 1.98858,-0.137321 1.27746,-1.277461 1.17158,-5.993681 -0.20192,-8.99379 -0.79388,-1.734076 -2.98468,-4.161785 -4.62104,-5.120756 -6.05977,-3.551259 -13.8399,-1.296765 -16.97802,4.919819 -1.75031,3.467352 -1.69635,7.357254 0.15239,10.984877 0.86948,1.706118 0.93208,1.980625 0.77275,3.388862 -0.19373,1.712405 -0.22455,1.689709 1.69403,1.247579 1.0766,-0.248097 1.34244,-0.196556 3.04271,0.589931 1.58043,0.731047 2.24029,0.878658 4.34986,0.973056 1.40814,0.06301 3.09999,-0.02596 3.90048,-0.205087 1.68356,-0.376764 2.2936,-0.229232 2.69501,0.651762 0.49759,1.092099 -0.0698,1.914556 -1.64317,2.381795 -1.71487,0.509259 -5.19294,0.698481 -6.97596,0.379518 z"
         id="path938" /><path
         style="fill:#9635e0;stroke-width:0.264583"
         d="m 244.31961,88.523985 c -1.8881,-0.94088 -2.80744,-2.337922 -2.94338,-4.472817 -0.0819,-1.285744 0.014,-1.880519 0.43668,-2.709027 1.59223,-3.12103 5.09578,-4.088782 8.04089,-2.221053 2.94738,1.869173 3.17279,6.776153 0.40566,8.830621 -1.88531,1.399755 -3.89145,1.593036 -5.93985,0.572276 z"
         id="path930" /></g></g></svg>
