<?xml version="1.0" encoding="UTF-8" standalone="no"?>
<svg
   id="Layer_2"
   viewBox="0 0 64 64"
   version="1.1"
   width="64"
   height="64"
   xmlns="http://www.w3.org/2000/svg"
   xmlns:svg="http://www.w3.org/2000/svg">
  <defs
     id="defs10">
    <style
       id="style1">
      .cls-1 {
        fill: url(#radial-gradient);
      }

      .cls-2 {
        fill: #fff;
      }
    </style>
    <radialGradient
       id="radial-gradient"
       cx="48.459999"
       cy="-0.94999999"
       fx="48.459999"
       fy="-0.94999999"
       r="64.839996"
       gradientUnits="userSpaceOnUse">
      <stop
         offset="0"
         stop-color="#9f42c6"
         id="stop1" />
      <stop
         offset=".27"
         stop-color="#a041c3"
         id="stop2" />
      <stop
         offset=".42"
         stop-color="#a43ebb"
         id="stop3" />
      <stop
         offset=".53"
         stop-color="#aa39ad"
         id="stop4" />
      <stop
         offset=".64"
         stop-color="#b4339a"
         id="stop5" />
      <stop
         offset=".73"
         stop-color="#c02b81"
         id="stop6" />
      <stop
         offset=".82"
         stop-color="#cf2061"
         id="stop7" />
      <stop
         offset=".9"
         stop-color="#e1143c"
         id="stop8" />
      <stop
         offset=".97"
         stop-color="#f50613"
         id="stop9" />
      <stop
         offset="1"
         stop-color="red"
         id="stop10" />
    </radialGradient>
  </defs>
  <g
     id="_x2D_-production"
     transform="matrix(1.1666667,0,0,1.1666667,3.9999992,3.9999992)">
    <g
       id="logomark.square.gradient">
      <path
         id="background"
         class="cls-1"
         d="M 48,11.26 V 36.73 C 48,42.95 42.95,48 36.73,48 H 11.26 C 5.04,48 0,42.95 0,36.73 V 11.26 C 0,5.04 5.04,0 11.26,0 h 25.47 c 3.32,0 6.3,1.43 8.37,3.72 0.47,0.52 0.89,1.08 1.25,1.68 0.18,0.29 0.34,0.59 0.5,0.89 0.33,0.68 0.6,1.39 0.79,2.14 0.1,0.37 0.18,0.76 0.23,1.15 0.09,0.54 0.13,1.11 0.13,1.68 z"
         style="fill:url(#radial-gradient)" />
      <g
         id="checkbox">
        <path
           class="cls-2"
           d="m 13.62,17.97 7.92,7.92 1.47,-1.47 -7.92,-7.92 z M 28.01,32.37 29.48,30.91 27.32,28.75 47.64,8.43 C 47.45,7.68 47.18,6.97 46.85,6.29 L 24.39,28.75 Z m -15.09,-13.7 -1.46,1.46 14.4,14.4 1.46,-1.47 L 23,28.75 46.35,5.4 C 45.99,4.8 45.57,4.24 45.1,3.72 L 21.54,27.28 Z M 47.87,9.58 28.7,28.75 30.17,30.21 48,12.38 v -1.12 c 0,-0.57 -0.04,-1.14 -0.13,-1.68 z m -22.71,12.69 -7.92,-7.92 -1.47,1.47 7.92,7.92 z m 16.16,12.85 c 0,3.42 -2.78,6.2 -6.2,6.2 H 12.88 c -3.42,0 -6.2,-2.78 -6.2,-6.2 V 12.88 c 0,-3.42 2.78,-6.21 6.2,-6.21 H 33.66 V 4.6 H 12.88 C 8.32,4.6 4.6,8.31 4.6,12.88 v 22.24 c 0,4.56 3.71,8.28 8.28,8.28 h 22.24 c 4.56,0 8.28,-3.71 8.28,-8.28 v -3.51 h -2.07 v 3.51 z"
           id="path10" />
      </g>
    </g>
  </g>
</svg>
